Coordinates
version=1
nRows=11
nColumns=33
inDegrees=yes

Units are S.I. units (second, meters, Newtons, ...)
Angles are in degrees.

endheader
time	ground_thorax_rot_x	ground_thorax_rot_y	ground_thorax_rot_z	ground_thorax_tx	ground_thorax_ty	ground_thorax_tz	clav_prot_r	clav_elev_r	scapula_abduction_r	scapula_elevation_r	scapula_upward_rot_r	scapula_winging_r	shoulder_elv_r	plane_of_elev_r	axial_rot_r	elbow_flexion_r	pro_sup_r	wrist_flex_r	wrist_dev_r	clav_prot_l	clav_elev_l	scapula_abduction_l	scapula_elevation_l	scapula_upward_rot_l	scapula_winging_l	shoulder_elv_l	plane_of_elev_l	axial_rot_l	elbow_flexion_l	pro_sup_l	wrist_flex_l	wrist_dev_l	
1.8700	37.986030	5.893239	11.889249	-173.749221	817.698348	2.122455	16.890504	40.038972	43.180987	45.000000	-39.287584	2073.643775	-1908.952304	146.420884	-128.923932	1825.083647	174.476047	10.890617	4.943671	11.992442	-45.000000	-42.133282	45.000000	-42.846892	-2067.180781	-267.677205	19.216416	-180.000000	1792.339068	137.492861	9.033041	-13.731976	
1.8800	38.010050	5.587765	11.619200	-169.147505	816.886350	2.233226	16.927370	40.265029	43.448669	45.000000	-38.382777	2073.735122	-1909.160734	146.445763	-128.742889	1824.986113	176.564345	10.704115	4.879897	12.019270	-45.000000	-42.524421	45.000000	-42.014213	-2067.585694	-267.632668	19.267361	-180.000000	1792.209410	136.391962	8.985034	-13.387349	
1.8900	38.030292	5.280239	11.342299	-164.336927	815.904905	2.342603	16.964927	40.497025	43.726290	45.000000	-37.459560	2073.837671	-1909.394630	146.473077	-128.518472	1824.866890	178.767425	10.507342	4.808507	12.036189	-45.000000	-42.926995	45.000000	-41.068926	-2068.000851	-267.627130	19.307139	-180.000000	1792.140210	135.581341	8.930734	-13.064621	
1.9000	38.049175	4.978008	11.064258	-159.323116	814.749701	2.449161	16.987129	40.740145	44.006652	44.999999	-36.515811	2073.948548	-1909.656354	146.500884	-128.238853	1824.725024	181.045485	10.302268	4.723603	12.043993	-45.000000	-43.336024	45.000000	-40.044117	-2068.429113	-267.661063	19.333753	-180.000000	1792.126990	135.109016	8.867149	-12.781785	
1.9100	38.070849	4.688400	10.790058	-154.115099	813.422395	2.551742	16.995803	40.996220	44.278894	44.999999	-35.548598	2074.068968	-1909.941948	146.526303	-127.890814	1824.558127	183.365826	10.090675	4.625945	12.038375	-45.000000	-43.735659	45.000000	-38.961265	-2068.879797	-267.733475	19.347221	-180.000000	1792.176429	134.995694	8.793494	-12.545021	
1.9200	38.091693	4.411759	10.523062	-148.725419	811.930667	2.649447	16.993565	41.253165	44.522997	44.999998	-34.570455	2074.224812	-1910.236970	146.549998	-127.517375	1824.368048	185.711760	9.872935	4.512015	12.010434	-45.000000	-44.110156	45.000000	-37.813077	-2069.343778	-267.846946	19.349218	-180.000000	1792.285185	135.275980	8.720728	-12.347601	
1.9300	38.111039	4.162871	10.280198	-143.171198	810.288290	2.741660	16.985682	41.501457	44.722912	44.999996	-33.606217	2074.432464	-1910.526381	146.572857	-127.136942	1824.158308	188.069256	9.649843	4.385745	11.951017	-45.000000	-44.431140	45.000000	-36.627991	-2069.833302	-267.993559	19.335882	-180.000000	1792.458054	135.967204	8.654829	-12.186348	
1.9400	38.126527	3.941275	10.063350	-137.474502	808.514576	2.828186	16.968265	41.729768	44.865200	44.999993	-32.664832	2074.710029	-1910.800029	146.597301	-126.781997	1823.932385	190.426882	9.422237	4.244093	11.845919	-45.000000	-44.680660	45.000000	-35.394992	-2070.341487	-268.177042	19.308763	-180.000000	1792.695647	137.109188	8.605735	-12.053757	
1.9500	38.144663	3.745894	9.867137	-131.663326	806.634333	2.909397	16.919370	41.941223	44.951187	44.999987	-31.715446	2075.037929	-1911.073132	146.624882	-126.390100	1823.688153	192.754410	9.194876	4.092382	11.685400	-45.000000	-44.850356	45.000000	-34.138695	-2070.878779	-268.395153	19.270975	-180.000000	1792.999724	138.691119	8.571138	-11.952534	
1.9600	38.165263	3.575637	9.688313	-125.771617	804.677533	2.986340	16.837279	42.140366	44.989025	44.999977	-30.759416	2075.402107	-1911.359704	146.652820	-125.934066	1823.422506	195.024471	8.973600	3.935177	11.478726	-45.000000	-44.948400	45.000000	-32.868024	-2071.436246	-268.650028	19.222374	-180.000000	1793.359066	140.670731	8.544797	-11.887903	
1.9700	38.192801	3.429044	9.521679	-119.839591	802.679397	3.060667	16.732063	42.339397	45.000000	44.999959	-29.802616	2075.779729	-1911.669166	146.682822	-125.366707	1823.138296	197.205849	8.763758	3.781951	11.238305	-45.000000	-44.990235	45.000000	-31.609769	-2072.022640	-268.935705	19.154190	-180.000000	1793.766105	142.959086	8.515457	-11.868118	
